<svg class="icon" width="200px" height="200.00px" viewBox="0 0 1024 1024" version="1.1" xmlns="http://www.w3.org/2000/svg"><path fill="#bfcad9" d="M170.666667 170.666667h682.666666a85.333333 85.333333 0 0 1 85.333334 85.333333v469.333333a85.333333 85.333333 0 0 1-85.333334 85.333334H170.666667a85.333333 85.333333 0 0 1-85.333334-85.333334V256a85.333333 85.333333 0 0 1 85.333334-85.333333z m0 42.666666a42.666667 42.666667 0 0 0-42.666667 42.666667v469.333333a42.666667 42.666667 0 0 0 42.666667 42.666667h682.666666a42.666667 42.666667 0 0 0 42.666667-42.666667V256a42.666667 42.666667 0 0 0-42.666667-42.666667H170.666667z m106.666666 640h469.333334a21.333333 21.333333 0 1 1 0 42.666667h-469.333334a21.333333 21.333333 0 1 1 0-42.666667zM370.602667 375.04H416l93.184 243.712h-42.666667l-22.186666-61.098667H342.272l-22.186667 61.098667h-42.666666L370.602667 375.04z m-16.384 149.845333h78.165333l-38.229333-106.837333h-1.365334l-38.570666 106.837333z m178.858666-149.845333h89.088c39.594667 0 69.290667 10.922667 89.770667 32.768 19.456 20.48 29.354667 50.176 29.354667 89.088 0 38.570667-9.898667 68.266667-29.354667 89.088-20.48 21.845333-50.176 32.768-89.770667 32.768h-89.088V375.04z m39.936 34.133333v175.445334h41.642667c30.378667 0 52.565333-7.168 66.56-21.162667 13.653333-14.336 20.48-36.522667 20.48-66.56 0-30.72-6.826667-53.248-20.48-66.901333-13.994667-13.994667-36.181333-20.821333-66.56-20.821334h-41.642667z" /></svg>