<svg class="icon" width="200px" height="180.12px" viewBox="0 0 1137 1024" version="1.1" xmlns="http://www.w3.org/2000/svg"><path fill="#bfcad9" d="M466.488889 539.648c0 18.261333 15.246222 32.995556 34.133333 32.995556h375.466667a33.564444 33.564444 0 0 0 34.133333-32.995556 33.564444 33.564444 0 0 0-34.133333-32.938667H500.622222a33.564444 33.564444 0 0 0-34.133333 32.995556zM227.555556 276.138667c0 18.204444 15.246222 32.995556 34.076444 32.995555h614.4c18.887111 0 34.133333-14.791111 34.133333-32.995555a33.564444 33.564444 0 0 0-34.133333-32.938667H261.688889a33.450667 33.450667 0 0 0-34.019556 32.995556z m-136.533334 393.216v-492.088889c0-36.352 30.606222-65.820444 68.266667-65.820445h819.2c37.660444 0 68.266667 29.468444 68.266667 65.877334v492.032c0 36.465778-30.606222 65.877333-68.266667 65.877333h-170.723556v68.039111h-0.568889c0 51.996444 10.410667 171.918222-27.875555 126.179556l-226.417778-194.218667H159.288889c-37.660444 0-68.266667-29.411556-68.266667-65.877333zM22.755556 144.384v557.909333c0 54.613333 45.852444 98.872889 102.4 98.872889h406.243555l204.743111 177.948445c80.952889 51.484444 130.389333 2.389333 140.231111-38.513778l-0.227555-139.434667H1012.622222c56.547556 0 102.4-44.259556 102.4-98.872889V144.384c0-54.613333-45.852444-98.872889-102.4-98.872889H125.155556C68.608 45.511111 22.755556 89.770667 22.755556 144.384zM227.555556 407.893333c0 18.204444 15.246222 32.938667 34.076444 32.938667h614.4a33.564444 33.564444 0 0 0 34.133333-32.995556 33.564444 33.564444 0 0 0-34.133333-32.938666H261.688889a33.507556 33.507556 0 0 0-34.019556 32.995555z" /></svg>