<svg class="icon" width="200px" height="200.00px" viewBox="0 0 1024 1024" version="1.1" xmlns="http://www.w3.org/2000/svg"><path fill="#bfcad9" d="M512 528.896c132.096 0 239.104-158.208 239.104-290.304S644.096 0 512 0 272.896 107.008 272.896 239.104s107.008 289.792 239.104 289.792zM85.504 836.608c0-64.512 46.592-140.288 104.448-168.96L295.936 614.4l80.384 277.504s2.048 24.064 42.496 24.064 40.448-24.064 40.448-24.064V665.6s2.048-51.2 54.272-51.2 52.224 51.2 52.224 51.2v226.304s13.824 28.672 46.08 28.672 36.352-28.672 36.352-28.672L727.04 614.4l106.496 53.248c57.856 28.672 104.448 104.448 104.448 168.96v70.656c0 64.512-52.224 116.736-116.736 116.736h-619.52c-64.512 0-116.736-52.224-116.736-116.736v-70.656z" /></svg>