<svg class="icon" width="200px" height="200.00px" viewBox="0 0 1024 1024" version="1.1" xmlns="http://www.w3.org/2000/svg"><path fill="#bfcad9" d="M891.2 348.8H728V296c0-120-96-216-216-216s-216 96-216 216v57.6H132.8C104 348.8 80 372.8 80 406.4v484.8c0 28.8 24 52.8 52.8 52.8h758.4c28.8 0 52.8-24 52.8-52.8V406.4c0-33.6-24-57.6-52.8-57.6zM348.8 296c0-91.2 72-163.2 163.2-163.2s163.2 72 163.2 163.2v52.8H348.8V296z m542.4 566.4c0 14.4-14.4 28.8-28.8 28.8H161.6c-14.4 0-28.8-14.4-28.8-28.8v-432c0-14.4 14.4-28.8 28.8-28.8h700.8c14.4 0 28.8 14.4 28.8 28.8v432z"  /><path fill="#333333" d="M516.8 512c-52.8 0-91.2 43.2-91.2 91.2 0 38.4 24 72 62.4 86.4V728c0 19.2 14.4 28.8 28.8 28.8 19.2 0 28.8-14.4 28.8-28.8v-38.4c33.6-14.4 62.4-48 62.4-86.4 0-48-38.4-91.2-91.2-91.2z"  /></svg>