<?xml version="1.0" standalone="no"?><!DOCTYPE svg PUBLIC "-//W3C//DTD SVG 1.1//EN" "http://www.w3.org/Graphics/SVG/1.1/DTD/svg11.dtd"><svg class="icon" width="200px" height="200.00px" viewBox="0 0 1024 1024" version="1.1" xmlns="http://www.w3.org/2000/svg"><path fill="#bfcad9" d="M0 1024v-64h1024V1024H0z m960-128h-128a64 64 0 0 1-64-64V256c0-35.328 28.672-64 64-64h128c35.328 0 64 28.672 64 64v576a64 64 0 0 1-64 64z m0-640h-128v576h128V256z m-384 640h-128a64 64 0 0 1-64-64V64c0-35.328 28.672-64 64-64h128c35.328 0 64 28.672 64 64v768a64 64 0 0 1-64 64z m0-832h-128v768h128V64zM192 896H64A64 64 0 0 1 0 832v-384c0-35.328 28.672-64 64-64h128c35.328 0 64 28.672 64 64v384a64 64 0 0 1-64 64z m0-448H64v384h128v-384z" /></svg>