<svg class="icon" width="200px" height="200.00px" viewBox="0 0 1024 1024" version="1.1" xmlns="http://www.w3.org/2000/svg"><path d="M815.744 547.541333a42.666667 42.666667 0 0 1-47.146667-71.082666c25.728-17.066667 42.069333-47.914667 42.069334-82.218667C810.666667 340.778667 771.541333 298.666667 724.906667 298.666667c-20.565333 0-40.064 8.064-55.552 22.784a42.666667 42.666667 0 0 1-58.709334-61.952A165.546667 165.546667 0 0 1 724.864 213.333333C820.096 213.333333 896 294.997333 896 394.24c0 62.762667-30.549333 120.362667-80.256 153.301333z" fill="#999999" /><path d="M782.805333 810.666667L768 716.672h131.029333v-31.786667c0-46.08-23.594667-85.76-57.728-104.32A219.050667 219.050667 0 0 0 901.461333 512c48.213333 37.717333 79.872 101.077333 79.872 172.885333v78.805334c0 25.941333-18.432 46.976-41.130666 46.976h-157.44z" fill="#979797" /><path d="M448 554.666667a234.666667 234.666667 0 1 1 0-469.333334 234.666667 234.666667 0 0 1 0 469.333334z m0-85.333334a149.333333 149.333333 0 1 0 0-298.666666 149.333333 149.333333 0 0 0 0 298.666666z" fill="#999999" /><path d="M625.792 527.914667c107.733333 37.930667 184.874667 139.605333 184.874667 259.029333v104.32c0 26.197333-21.504 47.402667-48 47.402667H90.666667A47.701333 47.701333 0 0 1 42.666667 891.264v-104.32c0-131.242667 93.098667-241.024 217.642666-268.373333C309.76 567.466667 375.637333 597.333333 448 597.333333c67.669333 0 129.664-26.069333 177.792-69.418666z m88.874667 259.029333c0-99.456-81.664-180.138667-182.4-180.138667h-211.2c-100.736 0-182.4 80.64-182.4 180.138667v56.917333h576v-56.917333z" fill="#979797" /></svg>