<svg class="icon" width="200px" height="200.00px" viewBox="0 0 1024 1024" version="1.1"><path fill="#bfcad9" d="M528.543744 991.666176h-23.810048c-141.955072 0-283.910144 0.024576-425.865216-0.016384-36.274176-0.008192-45.010944-8.577024-44.945408-44.38016 0.110592-61.325312-3.145728-122.793984 14.647296-182.861824 37.593088-126.889984 117.121024-216.502272 237.584384-270.364672 8.462336-3.784704 16.846848-7.749632 24.563712-11.30496-21.078016-23.068672-43.368448-43.425792-60.837888-67.309568-63.352832-86.6304-57.89696-210.108416 11.157504-292.737024 72.359936-86.581248 194.84672-115.474432 292.794368-68.48512 87.179264 41.824256 137.818112 110.821376 144.175104 207.572992 6.746112 102.7072-42.012672 178.315264-126.779392 231.54688-36.028416 22.626304-78.344192 27.938816-120.164352 28.663808-199.430144 3.457024-353.021952 158.425088-353.017856 357.220352 0 50.409472 0 50.409472 49.799168 50.409472 107.831296-0.004096 215.662592 0.270336 323.489792-0.32768 14.749696-0.08192 23.94112 3.371008 30.37184 17.481728 6.418432 14.09024 15.839232 26.816512 26.836992 44.89216z m106.893312-713.621504c0.569344-100.0448-81.014784-181.94432-182.132736-182.841344-100.12672-0.884736-183.476224 81.031168-184.233984 181.071872-0.741376 97.902592 81.28512 181.755904 178.368512 182.337536 105.181184 0.626688 187.41248-78.352384 187.998208-180.568064zM814.362624 1001.111552c-9.506816-5.812224-20.803584-10.706944-29.605888-18.444288-35.893248-31.547392-47.394816-31.965184-83.861504-0.458752-21.475328 18.550784-34.484224 20.00896-59.224064 6.356992-16.130048-8.896512-32.411648-17.567744-48.152576-27.119616-18.079744-10.973184-23.683072-26.599424-18.14528-47.190016 11.923456-44.314624-4.128768-69.767168-49.664-76.374016-18.399232-2.670592-30.63808-12.972032-31.649792-29.55264a836.25984 836.25984 0 0 1 0.188416-103.477248c1.1264-17.825792 13.80352-27.680768 33.411072-29.609984 40.165376-3.956736 59.65824-34.013184 48.676864-72.269824-7.360512-25.628672-1.953792-40.382464 20.475904-53.28896 17.145856-9.863168 34.668544-19.06688 52.10112-28.418048 18.886656-10.129408 36.069376-8.445952 52.752384 5.910528 38.105088 32.804864 46.903296 32.862208 85.716992 0.937984 17.403904-14.31552 35.155968-16.46592 54.74304-5.500928 16.666624 9.326592 33.665024 18.096128 50.110464 27.787264 20.1728 11.886592 26.021888 27.652096 19.738624 50.3808-11.608064 41.996288 6.602752 70.090752 50.016256 74.760192 21.213184 2.281472 31.260672 15.64672 32.411648 33.398784 2.056192 31.78496 1.8432 63.893504-0.155648 95.690752-1.220608 19.456-13.254656 31.15008-34.729984 33.554432-40.69376 4.550656-59.240448 33.595392-48.31232 72.76544 7.237632 25.935872 1.82272 39.788544-21.098496 52.867072-16.592896 9.469952-33.21856 18.90304-50.163712 27.70944-7.094272 3.702784-15.065088 5.726208-25.57952 9.58464z m-184.717312-380.112896c-0.028672 44.89216-28.647424 84.41856-72.699904 98.2016-11.825152 3.694592-19.591168 7.839744-18.866176 21.56544 0.462848 8.781824-0.045056 17.63328-0.438272 26.43968-0.7168 15.863808 6.02112 22.822912 22.130688 27.795456 45.871104 14.15168 76.029952 62.939136 68.837376 108.146688-1.933312 12.148736-5.042176 21.85216 10.153984 28.07808 14.798848 6.066176 25.305088 19.279872 44.457984 3.006464 38.4-32.641024 73.883648-34.484224 111.53408-4.8128 20.742144 16.347136 35.418112 15.122432 54.759424 1.49504 8.781824-6.18496 13.041664-10.326016 10.858496-22.38464-8.769536-48.49664 15.896576-96.29696 62.734336-110.645248 27.787264-8.507392 27.230208-25.034752 27.385856-45.658112 0.131072-17.608704-3.608576-28.766208-24.420352-35.090432-46.16192-14.0288-74.252288-63.05792-66.727936-109.187072 1.536-9.412608 6.504448-19.206144-7.102464-23.412736-15.028224-4.644864-25.25184-25.202688-46.608384-8.27392-42.553344 33.746944-76.333056 33.64864-118.86592 1.404928-13.099008-9.9328-22.294528-10.153984-36.057088-2.31424-16.306176 9.293824-31.084544 17.088512-21.409792 39.555072 0.761856 1.765376 0.299008 4.046848 0.344064 6.090752zM837.279744 755.499008c0.516096 52.420608-42.094592 95.678464-94.28992 95.719424-51.707904 0.04096-93.888512-41.324544-94.932992-93.097984-1.056768-52.232192 40.91904-95.817728 93.3888-96.976896 51.785728-1.138688 95.318016 41.71776 95.834112 94.355456z m-93.802496-44.941312c-25.440256-0.24576-45.576192 19.234816-46.129152 44.62592-0.548864 25.227264 19.0464 46.309376 43.823104 47.128576 25.391104 0.843776 47.43168-20.451328 47.489024-45.883392 0.057344-25.014272-20.25472-45.633536-45.182976-45.871104z" /></svg>