<svg class="icon" width="200px" height="200.00px" viewBox="0 0 1024 1024" version="1.1" xmlns="http://www.w3.org/2000/svg"><path fill="#bfcad9" d="M320.936965 350.133426c9.400091-42.99421 29.981848-78.174454 58.068534-105.746416 28.649504-27.726481 64.394612-47.125297 102.027721-57.385988 38.195927-10.41521 78.279854-11.68718 116.01734-3.870144 39.572274 7.91732 75.979462 26.355251 104.418164 55.409984l-22.415522 21.803585c-24.101931-24.206308-54.790884-39.374776-88.134293-46.577828-33.189913-6.642281-68.474534-5.468548-101.614306 3.566222-33.142841 9.035794-63.578014 25.783223-88.49552 49.471738-23.237237 23.234167-40.958854 53.40942-48.520063 89.868797L320.936965 350.133426zM198.330556 407.525554c-7.653307-81.190137 16.250102-152.880923 60.118216-208.892611 38.35454-49.682539 92.483344-87.974657 152.73766-110.438275 60.820204-22.61609 128.172171-30.117948 193.22784-19.48989C686.622598 82.498946 766.326894 124.735909 826.169841 202.560392l-24.869411 19.453051C746.260883 150.723793 674.262082 112.421442 599.55766 99.598392c-59.948347-9.604752-121.528867-3.074012-177.291892 18.163685-54.78986 20.369933-103.917768 54.884005-138.694829 99.969852-39.324634 50.548256-60.724013 113.712855-53.531194 186.580442L198.330556 407.525554zM713.365682 944.072623c-5.586229-28.835745-14.781658-47.967478-20.606317-70.374814 0.545422-0.164752 0.86981-0.264013 0.865717-0.277316 26.402323-6.993275 40.47176-36.85028 34.758642-58.430784l-66.38392-306.561048 18.014282-4.776793c12.725836-3.366677 20.314675-16.415878 16.945951-29.155017-1.9934-7.493671-7.354502-13.180184-14.013155-15.923668 5.245468-22.078855 5.001921-45.276183-0.836041-67.348897-19.547195-73.765027-95.445816-117.869524-169.20982-98.325399-73.759911 19.533892-117.870548 95.447862-98.320283 169.205727 5.836939 22.059412 17.120936 42.388413 32.605605 58.962903-4.421706 5.672186-6.258541 13.264095-4.27128 20.744463 3.369747 12.731976 16.420995 20.313651 29.14683 16.940834l18.029632-4.777817L584.20909 853.184613c5.719258 21.580504 32.732495 40.551578 59.129702 33.559327 0.005117 0.01842 0.481977-0.091074 1.329275-0.295735 6.925736 26.231431 19.294438 62.334697 22.23235 73.424266M607.514889 648.960325c-0.085958 0.024559-0.170892 0.027629-0.25378 0.051165-0.083911 0.024559-0.162706 0.059352-0.24764 0.078795-16.001439 4.241604-33.083489-7.826246-38.149878-26.941606-5.067412-19.12457 3.805676-38.062897 19.808138-42.297338 0.082888-0.016373 0.167822-0.029676 0.249687-0.044002 0.080841-0.025583 0.159636-0.061398 0.245593-0.081864 15.999392-4.249791 33.080419 7.810896 38.156018 26.933419C632.376113 625.7763 623.512235 644.716674 607.514889 648.960325zM656.909879 447.196065c-28.803 7.572466-148.20032 37.511335-193.963597 49.589418-9.992585-12.177344-17.32969-26.481118-21.389146-41.824571-15.601326-58.884109 19.611663-119.480208 78.499865-135.091768 58.870806-15.597233 119.469975 19.61064 135.076418 78.496795C659.372977 414.353053 659.961378 431.088202 656.909879 447.196065z" /></svg>